<?xml version="1.0" encoding="utf-8"?>
<!-- Generator: Adobe Illustrator 25.0.0, SVG Export Plug-In . SVG Version: 6.00 Build 0)  -->
<svg version="1.1" id="Layer_1" xmlns="http://www.w3.org/2000/svg" xmlns:xlink="http://www.w3.org/1999/xlink" x="0px" y="0px"
	 viewBox="0 0 313.9 448.9" style="enable-background:new 0 0 313.9 448.9;" xml:space="preserve">
<style type="text/css">
	.st0{fill:#007236;}
	.st1{clip-path:url(#SVGID_2_);fill:url(#SVGID_3_);}
	.st2{clip-path:url(#SVGID_5_);fill:url(#SVGID_6_);}
	.st3{clip-path:url(#SVGID_8_);fill:url(#SVGID_9_);}
	.st4{clip-path:url(#SVGID_11_);fill:url(#SVGID_12_);}
	.st5{fill:#6CB33F;}
	.st6{fill:#0080C5;}
	.st7{fill:#FFD200;}
</style>
<g>
	<rect x="37.2" y="340.2" class="st0" width="10.3" height="8.8"/>
	<rect x="22.2" y="340.2" class="st0" width="10.3" height="8.8"/>
	<path class="st0" d="M92.3,353.9c-11.6,0-17.6,9.3-17.6,18v3.5c0,2.9-1.6,4.7-4.3,4.7h-8.3h-0.3h-6.1c-2.6,0-4.3-1.6-4.3-4.5v-23.4
		l-10.2,2.5v2.6c-12.6,0.1-21.8,4.3-21.6,16.3c0.1,6.7,5.8,13,13,13.4c5.1,0.3,8.3-2.3,9.9-4.1c1.6,3.9,5,7.4,12.3,7.4h7h0.3h8.7
		c4.5,0,7.6-2.3,9-4c2.7,2.4,6.7,4.8,12.5,4.8c11.7,0,17.9-10.3,17.9-19.1C110.2,363.2,103.9,353.9,92.3,353.9 M41.2,372.4
		c0,4.8-2.8,7.3-6.1,7.2c-4.3-0.1-5.7-4.4-5.7-7c0.2-7,6.6-9.2,11.8-9.2V372.4z M92.3,382.3c-5.3,0-7.2-5-7.2-10.4
		c0-4.8,1.9-9.8,7.2-9.8c5.5,0,7.4,4.4,7.4,9.8C99.7,378,97.8,382.3,92.3,382.3"/>
	<rect x="121.1" y="341.1" class="st0" width="10.1" height="49"/>
	<rect x="194.7" y="341.1" class="st0" width="10.3" height="8.8"/>
	<rect x="179.8" y="341.1" class="st0" width="10.3" height="8.8"/>
	<path class="st0" d="M275.2,377.1c-0.1,3.6-1.1,7.4-6.1,7.4c-3.2,0-6-2.9-6.1-7.9v-17.8h-10.1V377c-0.1,3.6-1.1,7.4-6.1,7.4
		c-3.2,0-6-2.9-6.1-7.9v-17.8h-10.2v16.7c0,3-1.7,4.5-4.4,4.5h-8.6h-0.4h-4.7c-4.5,0-7.3-2.9-7.3-7.3v-13.9h-10.2V374
		c0,4.3-2.1,6.1-6.1,6.1h-6.9h-0.6h-10v-11.3c0-9.1-5.3-13.2-15-13.2c-4.4,0-13.6,1.6-14,11.3h9.6c0.4-3.3,2.8-4.2,4.5-4.2
		c4.4,0,4.4,3.6,4.4,3.6v13.8h-20.1v10.1h40.6h0.6h9.8c4.7,0,8.6-2.1,10.4-5.3c2,2.7,5.3,5.3,10.8,5.3h4.1h0.4h9.5
		c6.4,0,9.8-2.7,11.6-6c3.2,6.3,7.5,7.5,12.6,7.5c3.9,0,9.5-2.7,10.9-6.4c3.2,4.4,6.4,6.4,11.5,6.4c9.1,0,11.9-7.1,11.9-14.6v-20.5
		h-10.1L275.2,377.1L275.2,377.1z"/>
	<rect x="296.3" y="341.1" class="st0" width="10.1" height="49"/>
	<g>
		<defs>
			<path id="SVGID_1_" d="M90.7,43.3c-27,26.8-39.4,62.7-37.4,97.9c7-29,21-57,42.5-77.6c14.8-14.2,33.9-24.4,54.1-28.7
				c20.9-4.4,37.7-2.6,26.8-2.3C134.3,34,99.3,57.4,77.8,93.3c-6.7,11.1-12.5,23.2-16.9,35.8c33.5-70.2,88.6-66,135.2-61.8
				c32.1,2.9,60.1,5.7,74.4-15.5c1.8-2.1,1.2-4.7,0.5-6.3C245.6,20,212.2,7,178.9,7C147,7,115.2,19,90.7,43.3"/>
		</defs>
		<clipPath id="SVGID_2_">
			<use xlink:href="#SVGID_1_"  style="overflow:visible;"/>
		</clipPath>
		<linearGradient id="SVGID_3_" gradientUnits="userSpaceOnUse" x1="53.8356" y1="74.1271" x2="275.8364" y2="74.1271">
			<stop  offset="0" style="stop-color:#007236"/>
			<stop  offset="0.1124" style="stop-color:#007236"/>
			<stop  offset="1" style="stop-color:#6CBF70"/>
		</linearGradient>
		<path class="st1" d="M82.8-70.2l236.4,96.3l-78.4,192.4L4.3,122.1L82.8-70.2z"/>
	</g>
	<g>
		<g>
			<defs>
				<path id="SVGID_4_" d="M280.8,147.1c3.7,20.2,1.6,41.7-6,60.9c-7.8,19.8-18.6,32.9-12.9,23.6c22.3-36.1,22.1-78.2,4.1-116
					c-5.6-11.7-12.5-23.3-20.5-33.8C313,194.3,170,241.2,194.1,299.2c0.8,2.7,3.2,3.6,5,4c69.1-13.8,115.3-79.9,101.5-149.1
					c-7.5-37.3-30.5-67.5-60.9-85.3C259.8,90.6,275.4,117.8,280.8,147.1"/>
			</defs>
			<clipPath id="SVGID_5_">
				<use xlink:href="#SVGID_4_"  style="overflow:visible;"/>
			</clipPath>
			
				<linearGradient id="SVGID_6_" gradientUnits="userSpaceOnUse" x1="-264.4284" y1="-49.2253" x2="-261.2618" y2="-49.2253" gradientTransform="matrix(-46.9963 32.0132 -32.0132 -46.9963 -13697.707 6294.686)">
				<stop  offset="0" style="stop-color:#6CBF70"/>
				<stop  offset="0.226" style="stop-color:#4DA95F"/>
				<stop  offset="0.6565" style="stop-color:#158142"/>
				<stop  offset="0.8652" style="stop-color:#007236"/>
				<stop  offset="0.8842" style="stop-color:#007236"/>
				<stop  offset="1" style="stop-color:#007236"/>
			</linearGradient>
			<polygon class="st2" points="423.4,228.8 215.7,370.3 60.9,143 268.6,1.6 			"/>
		</g>
	</g>
	<g>
		<g>
			<defs>
				<path id="SVGID_7_" d="M13,116c-22.4,66.9,12.1,139.8,79,162.1c36.1,12.1,73.7,7.1,104.3-10.5c-29,6.7-60.3,6.8-88.4-3.2
					c-19.4-6.9-37-19.3-49.9-35.4c-13.3-16.7-19.3-32.5-14-22.9c20.2,37.3,56.9,58.1,98.7,61.2c12.9,1,26.4,0.8,39.6-1
					C50.9,268.9,81.2,121.5,18.9,113.7c-0.4-0.1-0.8-0.1-1.2-0.1C15.6,113.5,14,114.9,13,116"/>
			</defs>
			<clipPath id="SVGID_8_">
				<use xlink:href="#SVGID_7_"  style="overflow:visible;"/>
			</clipPath>
			
				<linearGradient id="SVGID_9_" gradientUnits="userSpaceOnUse" x1="-270.6192" y1="-46.4771" x2="-267.4529" y2="-46.4771" gradientTransform="matrix(66.2391 28.2904 -28.2832 66.239 16605.541 10894.125)">
				<stop  offset="0" style="stop-color:#007236"/>
				<stop  offset="0.1124" style="stop-color:#007236"/>
				<stop  offset="0.3656" style="stop-color:#288F4C"/>
				<stop  offset="0.6385" style="stop-color:#4DA95F"/>
				<stop  offset="0.8598" style="stop-color:#64B96C"/>
				<stop  offset="1" style="stop-color:#6CBF70"/>
			</linearGradient>
			<polygon class="st3" points="22.3,39.3 260,140.8 164.5,364.5 -73.2,262.9 			"/>
		</g>
	</g>
	<g>
		<g>
			<defs>
				<path id="SVGID_10_" d="M230.9,155c0,39.1-31.7,70.7-70.7,70.7c-17.2,0-33-6.2-45.3-16.4c13,15.6,32.5,25.4,54.3,25.4
					c39.1,0,70.7-31.7,70.7-70.7c0-21.8-9.9-41.3-25.4-54.3C224.7,122,230.9,137.8,230.9,155"/>
			</defs>
			<clipPath id="SVGID_11_">
				<use xlink:href="#SVGID_10_"  style="overflow:visible;"/>
			</clipPath>
			
				<linearGradient id="SVGID_12_" gradientUnits="userSpaceOnUse" x1="-262.6491" y1="-46.2778" x2="-259.4833" y2="-46.2778" gradientTransform="matrix(-22.2429 27.0016 -27.0016 -22.2429 -6863.0967 6172.8286)">
				<stop  offset="0" style="stop-color:#F48120"/>
				<stop  offset="1" style="stop-color:#FFD300"/>
			</linearGradient>
			<polygon class="st4" points="301.3,160.3 189.4,296.2 53.5,184.3 165.4,48.4 			"/>
		</g>
	</g>
	<path class="st5" d="M110.1,106.7c11.3-9.4,25.9-15,41.7-14.9c36,0.1,65,29.4,64.9,65.3c-0.1,15.9-5.8,30.4-15.3,41.6
		c14.4-11.9,23.5-29.8,23.6-49.9c0.1-36-28.9-65.2-64.9-65.3C140.1,83.4,122.1,92.4,110.1,106.7"/>
	<path class="st6" d="M146,219.7c-13.4-4.8-25.3-14.1-33-27.3c-17.6-30-7.7-68.6,22.3-86.2c13.2-7.8,28.1-10.2,42.2-7.9
		c-17-6.1-36.4-4.8-53.2,5c-30,17.7-40,56.3-22.3,86.2C111.8,206.3,128.2,216.8,146,219.7"/>
	<polygon class="st0" points="19.6,442 19.6,399.9 50.8,399.9 50.8,407 28.1,407 28.1,416.3 49.2,416.3 49.2,423.4 28.1,423.4 
		28.1,434.9 51.6,434.9 51.6,442 	"/>
	<path class="st0" d="M55.9,433.3l8.1-1.2c0.3,1.6,1,2.8,2.1,3.6c1.1,0.8,2.5,1.2,4.4,1.2c2.1,0,3.7-0.4,4.7-1.1
		c0.7-0.5,1.1-1.3,1.1-2.2c0-0.6-0.2-1.1-0.6-1.5s-1.3-0.7-2.7-1.1c-6.5-1.4-10.6-2.7-12.4-3.9c-2.4-1.6-3.6-3.9-3.6-6.9
		c0-2.6,1-4.9,3.1-6.7c2.1-1.8,5.3-2.7,9.7-2.7c4.2,0,7.3,0.7,9.3,2c2,1.4,3.4,3.4,4.2,6l-7.6,1.4c-0.3-1.2-0.9-2.1-1.8-2.7
		s-2.2-1-3.9-1c-2.1,0-3.6,0.3-4.6,0.9c-0.6,0.4-0.9,1-0.9,1.6s0.3,1.1,0.8,1.5c0.7,0.5,3.2,1.3,7.5,2.3s7.3,2.2,9,3.6
		s2.5,3.4,2.5,6c0,2.8-1.2,5.2-3.5,7.2s-5.8,3-10.4,3c-4.2,0-7.4-0.8-9.9-2.5C58.2,438.4,56.7,436.1,55.9,433.3"/>
	<path class="st0" d="M105.4,411.5v6.4h-5.5v12.3c0,2.5,0.1,3.9,0.2,4.4c0.1,0.4,0.3,0.7,0.7,1c0.4,0.3,0.8,0.4,1.4,0.4
		c0.7,0,1.8-0.3,3.2-0.8l0.7,6.3c-1.9,0.8-4,1.2-6.4,1.2c-1.5,0-2.8-0.2-3.9-0.7c-1.2-0.5-2-1.1-2.6-1.9c-0.5-0.8-0.9-1.8-1.1-3.1
		c-0.2-0.9-0.3-2.8-0.3-5.7V418h-3.7v-6.4h3.7v-6.1l8.1-4.7v10.8L105.4,411.5L105.4,411.5z"/>
	<path class="st0" d="M111,399.9h8.1v7.5H111V399.9z M111,411.5h8.1V442H111V411.5z"/>
	<path class="st0" d="M155.3,442h-7.5v-4.5c-1.2,1.7-2.7,3-4.4,3.9s-3.4,1.3-5.1,1.3c-3.5,0-6.5-1.4-9-4.2
		c-2.5-2.8-3.8-6.8-3.8-11.8c0-5.2,1.2-9.1,3.6-11.8c2.4-2.7,5.5-4,9.2-4c3.4,0,6.4,1.4,8.8,4.3V400h8.1L155.3,442L155.3,442z
		 M133.8,426c0,3.3,0.5,5.6,1.4,7.1c1.3,2.1,3.1,3.2,5.5,3.2c1.9,0,3.4-0.8,4.7-2.4s2-3.9,2-7.1c0-3.5-0.6-6-1.9-7.6
		c-1.3-1.5-2.9-2.3-4.9-2.3c-1.9,0-3.5,0.8-4.8,2.3S133.8,423,133.8,426"/>
	<path class="st0" d="M169.3,420.8l-7.3-1.3c0.8-2.9,2.2-5.1,4.2-6.5s5-2.1,9-2.1c3.6,0,6.3,0.4,8,1.3c1.8,0.9,3,1.9,3.7,3.2
		c0.7,1.3,1.1,3.7,1.1,7.2l-0.1,9.4c0,2.7,0.1,4.7,0.4,5.9c0.3,1.3,0.7,2.6,1.5,4.1h-8c-0.2-0.5-0.5-1.3-0.8-2.4
		c-0.1-0.5-0.2-0.8-0.3-1c-1.4,1.3-2.9,2.3-4.4,3c-1.6,0.7-3.2,1-5,1c-3.1,0-5.6-0.9-7.4-2.6c-1.8-1.7-2.7-3.9-2.7-6.5
		c0-1.7,0.4-3.3,1.2-4.6c0.8-1.3,2-2.4,3.5-3.1s3.6-1.3,6.4-1.9c3.8-0.7,6.4-1.4,7.8-2v-0.8c0-1.5-0.4-2.7-1.2-3.3
		c-0.8-0.7-2.2-1-4.3-1c-1.4,0-2.6,0.3-3.4,0.8C170.5,418.4,169.8,419.3,169.3,420.8 M180.1,427.3c-1,0.3-2.7,0.8-4.9,1.2
		c-2.2,0.5-3.7,0.9-4.4,1.4c-1.1,0.7-1.6,1.7-1.6,2.8c0,1.1,0.4,2.1,1.3,2.9c0.8,0.8,1.9,1.2,3.2,1.2c1.5,0,2.8-0.5,4.2-1.4
		c1-0.7,1.6-1.6,1.9-2.7c0.2-0.7,0.3-2,0.3-3.9V427.3z"/>
	<path class="st0" d="M195.4,411.5h7.4v4.2c2.7-3.2,5.8-4.8,9.5-4.8c2,0,3.6,0.4,5.1,1.2c1.4,0.8,2.6,2,3.5,3.6
		c1.3-1.6,2.8-2.8,4.3-3.6c1.5-0.8,3.2-1.2,5-1.2c2.2,0,4.1,0.5,5.7,1.4s2.7,2.2,3.5,4c0.6,1.3,0.8,3.4,0.8,6.3V442h-8.1v-17.4
		c0-3-0.3-5-0.8-5.9c-0.7-1.1-1.9-1.7-3.4-1.7c-1.1,0-2.2,0.3-3.2,1s-1.7,1.7-2.2,3c-0.4,1.3-0.7,3.4-0.7,6.3V442h-8.1v-16.7
		c0-3-0.1-4.9-0.4-5.7c-0.3-0.9-0.7-1.5-1.3-1.9s-1.4-0.6-2.5-0.6c-1.2,0-2.4,0.3-3.4,1s-1.7,1.6-2.1,2.9c-0.4,1.3-0.6,3.4-0.6,6.3
		V442h-8.1v-30.5H195.4z"/>
	<path class="st0" d="M254.3,420.8l-7.3-1.3c0.8-2.9,2.2-5.1,4.2-6.5s5-2.1,9-2.1c3.6,0,6.3,0.4,8,1.3c1.8,0.9,3,1.9,3.7,3.2
		c0.7,1.3,1.1,3.7,1.1,7.2l-0.1,9.4c0,2.7,0.1,4.7,0.4,5.9c0.3,1.3,0.7,2.6,1.5,4.1h-8c-0.2-0.5-0.5-1.3-0.8-2.4
		c-0.1-0.5-0.2-0.8-0.3-1c-1.4,1.3-2.9,2.3-4.4,3c-1.6,0.7-3.2,1-5,1c-3.1,0-5.6-0.9-7.4-2.6s-2.7-3.9-2.7-6.5
		c0-1.7,0.4-3.3,1.2-4.6c0.8-1.3,2-2.4,3.5-3.1s3.6-1.3,6.4-1.9c3.8-0.7,6.4-1.4,7.8-2v-0.8c0-1.5-0.4-2.7-1.1-3.3
		c-0.8-0.7-2.2-1-4.3-1c-1.4,0-2.6,0.3-3.4,0.8C255.5,418.4,254.8,419.3,254.3,420.8 M265.1,427.3c-1,0.3-2.7,0.8-4.9,1.2
		c-2.2,0.5-3.7,0.9-4.4,1.4c-1.1,0.7-1.6,1.7-1.6,2.8c0,1.1,0.4,2.1,1.3,2.9c0.8,0.8,1.9,1.2,3.2,1.2c1.5,0,2.8-0.5,4.2-1.4
		c1-0.7,1.6-1.6,1.9-2.7c0.2-0.7,0.3-2,0.3-3.9V427.3z"/>
	<path class="st0" d="M289,399.9v15.5c2.6-3,5.7-4.6,9.3-4.6c1.9,0,3.5,0.3,5,1s2.6,1.6,3.4,2.6c0.8,1.1,1.3,2.3,1.5,3.6
		c0.3,1.3,0.4,3.3,0.4,6.1V442h-8.1v-16.1c0-3.2-0.2-5.2-0.5-6.1s-0.8-1.5-1.6-2.1c-0.8-0.5-1.8-0.8-2.9-0.8c-1.3,0-2.5,0.3-3.6,1
		c-1,0.7-1.8,1.6-2.3,2.9s-0.7,3.2-0.7,5.8V442h-8.1v-42.1H289z"/>
	<path class="st7" d="M201.9,175c-9.4,22.5-35.2,33.2-57.7,23.8s-33.2-35.2-23.8-57.7s35.2-33.2,57.7-23.8S211.3,152.5,201.9,175"/>
</g>
</svg>
